<svg width="62" height="60" viewBox="0 0 62 60" fill="none" xmlns="http://www.w3.org/2000/svg">
<path fill-rule="evenodd" clip-rule="evenodd" d="M14.5404 34.8281V40.902H13.1794V36.6331L11.3591 39.6872L9.53003 36.6331V40.902H8.17773V34.8281H9.92979L11.3591 37.3005L12.7538 34.8281H14.5404Z" fill="black"/>
<path fill-rule="evenodd" clip-rule="evenodd" d="M15.6934 40.902H17.046V34.8281H15.6934V40.902Z" fill="black"/>
<path fill-rule="evenodd" clip-rule="evenodd" d="M19.2638 36.0941H17.6309V34.8281H22.258V36.0941H20.6251V40.902H19.2638V36.0941Z" fill="black"/>
<path fill-rule="evenodd" clip-rule="evenodd" d="M22.7586 40.8168V39.5507C23.0393 39.6023 23.7201 39.7218 24.5536 39.7218C25.2511 39.7218 25.5998 39.6277 25.5998 39.2426C25.5998 38.7978 25.302 38.7379 24.324 38.2847C23.3711 37.8484 22.665 37.4633 22.665 36.4366C22.665 35.1708 23.4308 34.7344 24.9446 34.7344C25.719 34.7344 26.2804 34.803 26.6289 34.8456V36.1115C26.2889 36.0775 25.6679 35.9921 24.9788 35.9921C24.1623 35.9921 24.0005 36.0775 24.0005 36.4113C24.0005 36.7532 24.4429 36.9246 25.1065 37.2239C26.1019 37.6773 26.9183 38.0536 26.9183 39.2085C26.9183 40.4148 26.1698 40.9793 24.5536 40.9793C23.9159 40.9793 23.3201 40.9108 22.7586 40.8168Z" fill="black"/>
<path fill-rule="evenodd" clip-rule="evenodd" d="M27.7383 38.8491V34.8281H29.0909V38.7974C29.0909 39.4902 29.4993 39.73 30.1455 39.73C30.7922 39.73 31.2088 39.4902 31.2088 38.7974V34.8281H32.5614V38.8491C32.5614 40.3201 31.6004 40.9874 30.1455 40.9874C28.6908 40.9874 27.7383 40.3201 27.7383 38.8491Z" fill="black"/>
<path fill-rule="evenodd" clip-rule="evenodd" d="M36.2401 39.7557C36.7845 39.7557 37.0054 39.5589 37.0054 39.0286C37.0054 38.558 36.8012 38.3613 36.2992 38.3613H35.0577V39.7557H36.2401ZM36.1465 37.2833C36.6906 37.2833 36.8868 36.9926 36.8868 36.5904C36.8868 36.1027 36.6482 35.9746 36.1465 35.9746H35.0577V37.2833H36.1465ZM33.7051 34.8281H36.3419C37.5755 34.8281 38.2563 35.2815 38.2563 36.3935C38.2563 37.2749 37.7542 37.5482 37.2948 37.7284C37.8392 37.8907 38.4093 38.1903 38.4093 39.2083C38.4093 40.2688 37.7713 40.902 36.4358 40.902H33.7051V34.8281Z" fill="black"/>
<path fill-rule="evenodd" clip-rule="evenodd" d="M39.2295 40.902H40.5821V34.8281H39.2295V40.902Z" fill="black"/>
<path fill-rule="evenodd" clip-rule="evenodd" d="M41.5802 40.8168V39.5507C41.8609 39.6023 42.5418 39.7218 43.3752 39.7218C44.0724 39.7218 44.4211 39.6277 44.4211 39.2426C44.4211 38.7978 44.1236 38.7379 43.1456 38.2847C42.1927 37.8484 41.4863 37.4633 41.4863 36.4366C41.4863 35.1708 42.2524 34.7344 43.7663 34.7344C44.5406 34.7344 45.102 34.803 45.4506 34.8456V36.1115C45.1102 36.0775 44.4895 35.9921 43.8004 35.9921C42.9836 35.9921 42.8218 36.0775 42.8218 36.4113C42.8218 36.7532 43.2645 36.9246 43.9281 37.2239C44.9235 37.6773 45.7399 38.0536 45.7399 39.2085C45.7399 40.4148 44.9911 40.9793 43.3752 40.9793C42.7371 40.9793 42.1414 40.9108 41.5802 40.8168Z" fill="black"/>
<path fill-rule="evenodd" clip-rule="evenodd" d="M51.3067 34.8281V40.902H49.9544V38.4894H47.8103V40.902H46.458V34.8281H47.8103V37.2234H49.9544V34.8281H51.3067Z" fill="black"/>
<path fill-rule="evenodd" clip-rule="evenodd" d="M52.4023 40.902H53.755V34.8281H52.4023V40.902Z" fill="black"/>
<path fill-rule="evenodd" clip-rule="evenodd" d="M20.8971 42.9844V49.0583H19.5359V44.7895L17.7156 47.8435L15.8865 44.7895V49.0583H14.5342V42.9844H16.2862L17.7156 45.4565L19.1106 42.9844H20.8971Z" fill="black"/>
<path fill-rule="evenodd" clip-rule="evenodd" d="M25.6269 46.0209C25.6269 44.7802 25.4142 44.156 24.4276 44.156C23.4406 44.156 23.2282 44.7802 23.2282 46.0209C23.2282 47.2699 23.4406 47.9027 24.4276 47.9027C25.4142 47.9027 25.6269 47.2699 25.6269 46.0209ZM21.8242 46.0209C21.8242 43.8478 22.6496 42.8984 24.4276 42.8984C26.2055 42.8984 27.0306 43.8478 27.0306 46.0209C27.0306 48.1938 26.2055 49.1433 24.4276 49.1433C22.6496 49.1433 21.8242 48.1938 21.8242 46.0209Z" fill="black"/>
<path fill-rule="evenodd" clip-rule="evenodd" d="M28.8894 44.2504H27.2559V42.9844H31.8836V44.2504H30.2504V49.0583H28.8894V44.2504Z" fill="black"/>
<path fill-rule="evenodd" clip-rule="evenodd" d="M35.8971 46.0209C35.8971 44.7802 35.6844 44.156 34.6975 44.156C33.7105 44.156 33.4981 44.7802 33.4981 46.0209C33.4981 47.2699 33.7105 47.9027 34.6975 47.9027C35.6844 47.9027 35.8971 47.2699 35.8971 46.0209ZM32.0947 46.0209C32.0947 43.8478 32.9196 42.8984 34.6975 42.8984C36.4754 42.8984 37.3005 43.8478 37.3005 46.0209C37.3005 48.1938 36.4754 49.1433 34.6975 49.1433C32.9196 49.1433 32.0947 48.1938 32.0947 46.0209Z" fill="black"/>
<path fill-rule="evenodd" clip-rule="evenodd" d="M40.5904 45.7046C41.2026 45.7046 41.39 45.3969 41.39 44.9348C41.39 44.4641 41.2026 44.1564 40.5904 44.1564H39.5782V45.7046H40.5904ZM38.2256 42.9844H40.6754C41.9686 42.9844 42.7936 43.4718 42.7936 44.9348C42.7936 45.8756 42.326 46.4835 41.552 46.6714L43.0402 49.0583H41.458L40.182 46.885H39.5782V49.0583H38.2256V42.9844Z" fill="black"/>
<path fill-rule="evenodd" clip-rule="evenodd" d="M43.6183 48.9809V47.7147C43.899 47.7661 44.5795 47.8859 45.4132 47.8859C46.1105 47.8859 46.4592 47.7916 46.4592 47.4067C46.4592 46.9619 46.1617 46.9021 45.1837 46.4487C44.2308 46.0123 43.5244 45.6272 43.5244 44.6007C43.5244 43.3347 44.2902 42.8984 45.8043 42.8984C46.5787 42.8984 47.1401 42.9669 47.4886 43.0094V44.2757C47.1483 44.2414 46.5276 44.1562 45.8385 44.1562C45.0217 44.1562 44.8602 44.2414 44.8602 44.575C44.8602 44.9172 45.3025 45.0886 45.9659 45.3881C46.9612 45.8412 47.7776 46.2177 47.7776 47.3728C47.7776 48.5785 47.0292 49.1432 45.4132 49.1432C44.7752 49.1432 44.1798 49.0749 43.6183 48.9809Z" fill="black"/>
<path fill-rule="evenodd" clip-rule="evenodd" d="M25.124 10.0774L30.9096 20.1548L36.6949 10.0774L30.9096 0L25.124 10.0774Z" fill="#ED0000"/>
<path fill-rule="evenodd" clip-rule="evenodd" d="M42.483 20.1406L30.9121 20.1409L36.6977 30.2184H48.2686L42.483 20.1406Z" fill="#ED0000"/>
<path fill-rule="evenodd" clip-rule="evenodd" d="M19.3312 20.1406L30.9021 20.1409L25.1168 30.2184H13.5459L19.3312 20.1406Z" fill="#ED0000"/>
<path fill-rule="evenodd" clip-rule="evenodd" d="M0 58.3475H1.87087C3.15509 58.3475 3.95871 57.6052 3.95871 55.9958C3.95871 54.333 3.16155 53.6443 1.89702 53.6443H0V58.3475ZM0.830095 57.5656V54.4256H1.91026C2.70065 54.4256 3.09568 54.8964 3.09568 55.976C3.09568 57.0623 2.68741 57.5656 1.8841 57.5656H0.830095ZM4.68323 58.3475H5.50639V55.9163C5.78309 55.8367 6.1192 55.7572 6.76462 55.7572V55.0355C6.11242 55.0355 5.73046 55.2078 5.44699 55.3268V55.1016H4.68323V58.3475ZM7.79215 54.6313L8.37171 54.0415L7.79215 53.4453L7.2189 54.0415L7.79215 54.6313ZM7.38372 58.3475H8.20704V55.1016H7.38372V58.3475ZM10.117 58.3475H10.9077C11.2829 57.7643 12.0866 56.9433 12.1457 55.1016H11.3224C11.2567 56.4462 10.7957 57.175 10.5122 57.5854C10.229 57.175 9.76796 56.4462 9.7021 55.1016H8.87893C8.93802 56.9433 9.7418 57.7643 10.117 58.3475ZM14.3918 58.4134C15.0111 58.4134 15.3533 58.3537 15.5511 58.3011V57.6185C15.3336 57.6718 14.952 57.7444 14.4444 57.7444C13.8516 57.7444 13.4632 57.5656 13.43 56.9896H15.7354C15.7419 56.9099 15.7419 56.7641 15.7419 56.6516C15.7419 55.6117 15.4061 55.0355 14.2471 55.0355C13.1273 55.0355 12.6068 55.5981 12.6068 56.7113C12.6068 57.8504 13.2458 58.4134 14.3918 58.4134ZM13.43 56.4527C13.4632 55.9496 13.6476 55.6713 14.2203 55.6713C14.8926 55.6713 14.9384 55.9893 14.9452 56.4527H13.43ZM18.6269 60.0035L19.997 58.0957C20.1549 57.877 21.0773 56.718 21.0773 55.1016H20.2537C20.2537 56.3801 19.6215 57.3208 19.424 57.6052C19.1935 57.2742 18.5481 56.3602 18.5481 55.1016H17.7245C17.7771 56.8105 18.5481 57.6648 18.943 58.248L18.0341 59.5396L18.6269 60.0035ZM23.2178 58.4134C24.3309 58.4134 24.9237 57.8239 24.9237 56.7246C24.9237 55.6049 24.3309 55.0355 23.2178 55.0355C22.111 55.0355 21.5116 55.6049 21.5116 56.7246C21.5116 57.8239 22.111 58.4134 23.2178 58.4134ZM23.2178 57.6916C22.5788 57.6916 22.3615 57.3536 22.3615 56.718C22.3615 56.0618 22.5788 55.7439 23.2178 55.7439C23.8566 55.7439 24.0806 56.0618 24.0806 56.718C24.0806 57.3536 23.8566 57.6916 23.2178 57.6916ZM28.7242 55.1016H27.9009V57.5325C27.6245 57.612 27.2885 57.6916 26.9589 57.6916C26.6822 57.6916 26.4123 57.5723 26.4123 57.155V55.1016H25.5891V57.1948C25.5891 58.0559 26.0894 58.4134 26.6428 58.4134C27.2947 58.4134 27.6769 58.2415 27.9603 58.122V58.3475H28.7242V55.1016ZM29.6201 58.3475H30.4433V55.9163C30.72 55.8367 31.0561 55.7572 31.7015 55.7572V55.0355C31.0493 55.0355 30.6674 55.2078 30.3842 55.3268V55.1016H29.6201V58.3475ZM36.101 53.7567L36.0354 53.6443H34.83L34.7773 53.75C34.2966 54.7238 33.4799 55.87 33.4799 57.7843V58.3408H34.3231V57.8702C34.3231 57.6052 34.336 57.3671 34.3625 57.1416H36.5691C36.5953 57.3671 36.6085 57.6121 36.6085 57.877V58.3475H37.4512V57.8304C37.4512 55.9163 36.635 54.684 36.101 53.7567ZM34.481 56.4132C34.7047 55.4791 35.1202 54.8964 35.4428 54.2272C35.7721 54.9094 36.1998 55.4989 36.4371 56.4132H34.481ZM38.2485 58.3475H39.0718V55.9229C39.263 55.8301 39.7105 55.7637 39.9807 55.7637C40.2841 55.7637 40.4943 55.9096 40.4943 56.3204V58.3475H41.3179V56.2011C41.3179 56.1015 41.3111 56.0091 41.2914 55.9229C41.4693 55.8234 41.9307 55.7572 42.2069 55.7637C42.5036 55.7708 42.7274 55.9096 42.7274 56.3204V58.3475H43.5446V56.2077C43.5446 55.3666 43.0567 55.0355 42.4442 55.0355C42.003 55.0355 41.3573 55.1679 41.048 55.3729C40.8636 55.1412 40.5472 55.0355 40.2182 55.0355C39.7573 55.0355 39.1839 55.2209 39.0131 55.3268V55.1016H38.2485V58.3475ZM46.3629 55.0355C45.8626 55.0355 45.4939 55.1877 45.2763 55.2672V53.5115H44.453V55.2737L44.4594 58.3475H45.2763V58.1287C45.4807 58.2215 45.7767 58.4134 46.3629 58.4134C47.2595 58.4134 47.7929 57.7314 47.7929 56.7246C47.7929 55.7174 47.2595 55.0355 46.3629 55.0355ZM46.1789 57.6848C45.7767 57.6848 45.5071 57.5922 45.2831 57.5392V55.8963C45.5139 55.8367 45.7767 55.7508 46.1789 55.7508C46.7516 55.7508 46.9693 56.1282 46.9693 56.7246C46.9693 57.3208 46.7384 57.6848 46.1789 57.6848ZM48.9451 54.6313L49.5249 54.0415L48.9451 53.4453L48.3723 54.0415L48.9451 54.6313ZM48.537 58.3475H49.3603V55.1016H48.537V58.3475ZM51.8307 58.4134C52.0871 58.4134 52.3639 58.3873 52.5154 58.3608V57.612C52.3836 57.632 52.1794 57.645 51.9947 57.645C51.5734 57.645 51.3758 57.5789 51.3758 57.1813V55.7837H52.4166V55.1016H51.3758V54.2074H50.5589V55.1016H49.9663V55.7837H50.5589V57.3736C50.5589 58.142 51 58.4134 51.8307 58.4134ZM53.6021 54.6313L54.1814 54.0415L53.6021 53.4453L53.029 54.0415L53.6021 54.6313ZM53.1937 58.3475H54.0173V55.1016H53.1937V58.3475ZM56.4604 58.4134C57.5738 58.4134 58.1666 57.8239 58.1666 56.7246C58.1666 55.6049 57.5738 55.0355 56.4604 55.0355C55.3542 55.0355 54.7543 55.6049 54.7543 56.7246C54.7543 57.8239 55.3542 58.4134 56.4604 58.4134ZM56.4604 57.6916C55.8217 57.6916 55.6044 57.3536 55.6044 56.718C55.6044 56.0618 55.8217 55.7439 56.4604 55.7439C57.0995 55.7439 57.3232 56.0618 57.3232 56.718C57.3232 57.3536 57.0995 57.6916 56.4604 57.6916ZM58.8648 58.3475H59.6881V55.9163C59.9648 55.8367 60.3006 55.7572 60.6301 55.7572C60.9068 55.7572 61.1767 55.8765 61.1767 56.2939V58.3475H62V56.2541C62 55.3929 61.4995 55.0355 60.9465 55.0355C60.2938 55.0355 59.9122 55.2078 59.6287 55.3268V55.1016H58.8648V58.3475Z" fill="black"/>
</svg>
